<?xml version="1.0" encoding="UTF-8"?>
<svg id="Layer_1" data-name="Layer 1" xmlns="http://www.w3.org/2000/svg" viewBox="0 0 1741.46 496.04">
  <defs>
    <style>
      .cls-1 {
        fill: #77ff1c;
      }

      .cls-2 {
        fill: #8c00ff;
      }
    </style>
  </defs>
  <g>
    <circle class="cls-2" cx="521.68" cy="402.63" r="18.93"/>
    <circle class="cls-2" cx="492.19" cy="450" r="19.31"/>
    <path class="cls-2" d="M483.04,454c-21.07,0-40.07-3.83-57.87-11.65-3.29-1.44-4.78-5.28-3.34-8.56,1.44-3.29,5.28-4.78,8.57-3.34,17.32,7.61,35.99,11.04,57.01,10.49,11.94-11.82,21.46-25.59,28.33-40.96,1.46-3.28,5.31-4.75,8.59-3.28,3.28,1.46,4.75,5.31,3.28,8.59-7.89,17.67-18.99,33.41-32.98,46.77-1.14,1.09-2.65,1.73-4.22,1.79-2.48.1-4.94.15-7.37.15Z"/>
    <path class="cls-1" d="M317.47,172.25c9.69,0,23.28,6.4,29.09,13.7,3.13,3.94,7.79,6.04,12.53,6.04,2.79,0,5.61-.73,8.16-2.24,2.88-1.71,6.18-2.61,9.55-2.61,10.29,0,18.67,8.32,18.76,18.59,0,.13,0,.25,0,.38-.05,4.72,1.98,9.21,5.55,12.29,2.93,2.52,6.64,3.88,10.45,3.88.84,0,1.69-.07,2.53-.2.75-.12,1.51-.18,2.25-.18,7.72,0,14,6.28,14,14,0,.28-.02.63-.05,1.08-.62,8.3,5.22,15.69,13.45,17,8.78,1.39,11.9,10.5,11.9,18.56,0,2.01-.19,3.98-.57,5.84-1.7,8.31,3.39,16.51,11.59,18.67,7.49,1.98,13.55,6.97,17.98,14.84,4.88,8.65,7.46,20.04,7.46,32.96,0,14.78-3.45,27.76-9.72,36.55-5.9,8.26-13.73,12.28-23.94,12.28-8.84,0-16,7.16-16,16s-5.72,15.95-13.92,18.13c-4.05,1.08-7.52,3.7-9.66,7.31-2.55,4.31-7.06,6.89-12.06,6.89-1.04,0-2.09-.12-3.14-.36-1.18-.27-2.38-.4-3.56-.4-5.03,0-9.86,2.38-12.91,6.55-3.58,4.9-9.11,7.71-15.15,7.71-4.21,0-8.18-1.37-11.5-3.95-2.85-2.22-6.31-3.37-9.83-3.37-1.61,0-3.24.24-4.82.74-5.02,1.58-8.94,5.54-10.48,10.57-2.43,7.92-9.64,13.25-17.94,13.25-10.35,0-18.76-8.42-18.76-18.76V191.01c0-10.35,8.42-18.76,18.76-18.76M317.47,156.25c-19.2,0-34.76,15.56-34.76,34.76v262.94c0,19.2,15.56,34.76,34.76,34.76,15.65,0,28.88-10.34,33.24-24.56,5.89,4.58,13.29,7.32,21.33,7.32,11.53,0,21.74-5.61,28.06-14.25,2.15.49,4.39.76,6.7.76,10.99,0,20.6-5.92,25.82-14.74,14.86-3.95,25.81-17.49,25.81-33.59,32.36,0,49.66-29.02,49.66-64.83,0-30.95-12.94-56.83-37.36-63.27.59-2.88.9-5.91.9-9.04,0-17.4-9.35-31.81-25.4-34.36.06-.75.09-1.51.09-2.27,0-16.57-13.43-30-30-30-1.63,0-3.22.13-4.78.38,0-.13,0-.25,0-.38,0-19.2-15.56-34.76-34.76-34.76-6.47,0-12.53,1.78-17.72,4.86-9.29-11.67-27.8-19.73-41.61-19.73h0Z"/>
    <circle class="cls-2" cx="481.63" cy="219.19" r="13.7"/>
    <circle class="cls-2" cx="511.5" cy="259.29" r="21.36"/>
    <circle class="cls-2" cx="534.52" cy="323.38" r="14.84"/>
    <path class="cls-1" d="M292.76,297.12c-.54,0-1.1-.07-1.65-.21-3.47-.91-5.55-4.46-4.65-7.93,7.84-30.05,31.02-54.43,56.37-59.28,3.53-.68,6.93,1.64,7.61,5.16.68,3.53-1.64,6.93-5.16,7.61-20.28,3.88-39.73,24.83-46.24,49.8-.76,2.92-3.4,4.86-6.28,4.86Z"/>
    <path class="cls-1" d="M344.06,302.83c-3.47,0-6.35-2.75-6.49-6.25-.54-13.81,4.4-31.87,30.97-39.48.23-.07.46-.12.7-.16,14.67-2.49,24.35-7.6,28.75-15.18,4.08-7.02,3.92-16.69-.48-28.73-.71-1.94-.45-4.1.69-5.82,8.34-12.58,21.5-22.94,39.11-30.8,3.28-1.46,7.12,0,8.58,3.29,1.46,3.28,0,7.12-3.29,8.58-14.06,6.28-24.74,14.19-31.77,23.55,4.61,14.42,4.08,26.67-1.61,36.46-6.39,11-18.99,18.2-37.45,21.4-15.21,4.45-21.76,12.59-21.23,26.38.14,3.59-2.66,6.61-6.24,6.75-.09,0-.17,0-.26,0Z"/>
    <path class="cls-1" d="M375.44,368.53c-2.14,0-4.24-1.06-5.48-3-1.94-3.02-1.05-7.04,1.97-8.98,17.71-11.34,30.89-28.5,40.3-52.48.33-.83.82-1.59,1.46-2.22,17.03-17.03,38.11-23.24,59.35-17.51,3.47.94,5.52,4.5,4.58,7.97-.94,3.46-4.5,5.52-7.97,4.58-16.41-4.43-32.23.14-45.83,13.23-10.42,25.94-25.1,44.72-44.87,57.38-1.08.69-2.3,1.03-3.5,1.03Z"/>
    <path class="cls-1" d="M339.6,425.78c-2.74,0-5.28-1.74-6.18-4.49-1.11-3.41.75-7.08,4.16-8.19,19.11-6.23,32.76-12.78,42.97-20.6,1.45-1.11,3.31-1.56,5.11-1.24,27.44,4.96,43.3,6.88,70.11,3.14,3.56-.49,6.84,1.98,7.34,5.54.5,3.56-1.98,6.84-5.54,7.34-28.62,4-46.53,1.72-71.45-2.73-11.09,7.97-25.33,14.65-44.5,20.9-.67.22-1.35.32-2.02.32Z"/>
    <path class="cls-2" d="M534.52,329.89c-2.96,0-5.63-2.03-6.33-5.03-5.71-24.6-12.97-44.95-22.19-62.18l-29.58-39.6c-2.15-2.88-1.56-6.95,1.32-9.1,2.88-2.15,6.95-1.56,9.1,1.32l29.87,39.99c.19.26.37.53.52.81,9.88,18.35,17.6,39.88,23.63,65.82.81,3.5-1.36,6.99-4.86,7.8-.5.11-.99.17-1.48.17Z"/>
    <circle class="cls-2" cx="344.07" cy="299.46" r="23.02"/>
    <circle class="cls-2" cx="354.25" cy="229.49" r="16.08"/>
    <circle class="cls-2" cx="439.96" cy="180.5" r="14.65"/>
    <circle class="cls-2" cx="338.03" cy="419.27" r="17.12"/>
    <circle class="cls-2" cx="400.08" cy="423.33" r="10.65"/>
    <circle class="cls-2" cx="370.33" cy="364.67" r="17.31"/>
    <circle class="cls-2" cx="418.28" cy="306.45" r="16.03"/>
  </g>
  <g>
    <path class="cls-1" d="M340.42,87.54l-29.76-6.56c-11.98-7.58-30.01-51.43-37.7-66.33-5.78.21,5.79-.03,0,0-7.65,14.76-25.63,58.81-37.53,66.33l-29.76,6.56-47.96-5.25c.06-.02.12-.03.18-.04l24.57,56.74c29.17-9.97,59.32-14.72,90.57-13.62,31.25-1.11,61.4,3.65,90.57,13.62l24.57-56.74s.15.03.22.05c-1.22-1.65-47.99,5.25-47.99,5.25Z"/>
    <circle class="cls-2" cx="273.07" cy="14.65" r="14.65"/>
    <circle class="cls-2" cx="157.72" cy="76.82" r="14.65"/>
    <circle class="cls-2" cx="387.64" cy="76.82" r="14.65"/>
  </g>
  <path class="cls-1" d="M754.07,156.76v332.3h-54.21l-.07-224.34-21.58,224.34h-38.45l-22.76-219.21-.07,219.21h-54.21V156.76h80.24c2.38,19.98,4.83,43.53,7.36,70.65l8.8,84.52,14.25-155.17h80.68Z"/>
  <path class="cls-1" d="M785.6,156.76h103.4v66.5h-41.39v63.01h38.74v63.22h-38.74v73.07h45.52v66.5h-107.53V156.76Z"/>
  <path class="cls-1" d="M1108.93,156.76v332.3h-54.21l-.07-224.34-21.58,224.34h-38.45l-22.76-219.21-.07,219.21h-54.21V156.76h80.24c2.38,19.98,4.83,43.53,7.36,70.65l8.8,84.52,14.25-155.17h80.68Z"/>
  <path class="cls-2" d="M1202.47,156.76v265.8h37.71v66.5h-99.72V156.76h62.01Z"/>
  <path class="cls-2" d="M1398.97,351.34c0,33.39-.57,57.03-1.69,70.91-1.13,13.89-4.67,26.58-10.61,38.07-5.94,11.49-13.97,20.32-24.08,26.48-10.11,6.16-21.9,9.24-35.35,9.24s-24.23-2.91-34.4-8.72c-10.16-5.81-18.34-14.54-24.52-26.17-6.19-11.63-9.87-24.29-11.05-37.97-1.18-13.68-1.77-37.63-1.77-71.84v-56.85c0-33.39.56-57.02,1.69-70.91,1.13-13.89,4.66-26.58,10.61-38.08,5.94-11.49,13.97-20.32,24.08-26.48,10.11-6.16,21.9-9.24,35.35-9.24,12.76,0,24.23,2.91,34.39,8.72,10.16,5.82,18.34,14.54,24.53,26.17,6.19,11.63,9.87,24.29,11.05,37.97,1.18,13.69,1.77,37.63,1.77,71.84v56.85ZM1336.96,242.14c0-15.46-.61-25.35-1.84-29.66-1.23-4.31-3.76-6.47-7.59-6.47-3.24,0-5.72,1.74-7.44,5.23-1.72,3.49-2.58,13.79-2.58,30.89v155.17c0,19.29.56,31.2,1.69,35.71,1.13,4.52,3.76,6.77,7.88,6.77s6.92-2.6,8.1-7.8c1.18-5.2,1.77-17.58,1.77-37.15v-152.71Z"/>
  <path class="cls-2" d="M1428.74,156.76h43.89c29.26,0,49.07,1.57,59.44,4.72,10.36,3.15,18.8,11.19,25.33,24.12,6.53,12.93,9.8,33.56,9.8,61.88,0,25.86-2.31,43.24-6.92,52.13-4.62,8.9-13.7,14.23-27.25,16.01,12.27,4.24,20.52,9.92,24.75,17.04,4.22,7.12,6.85,13.65,7.88,19.6s1.55,22.34,1.55,49.16v87.64h-57.59v-110.43c0-17.79-1.01-28.8-3.02-33.05-2.01-4.24-7.29-6.36-15.84-6.36v149.83h-62.01V156.76ZM1490.75,213.61v73.89c6.97,0,11.86-1.33,14.66-4,2.8-2.67,4.2-11.32,4.2-25.96v-18.27c0-10.53-1.35-17.45-4.05-20.73-2.7-3.28-7.64-4.93-14.8-4.93Z"/>
  <path class="cls-2" d="M1597.84,156.76h46.4c29.95,0,50.2,1.92,60.76,5.75,10.55,3.83,18.58,10.13,24.08,18.88,5.5,8.76,8.93,18.51,10.31,29.25,1.37,10.74,2.06,31.85,2.06,63.32v116.38c0,29.83-1.01,49.77-3.02,59.83-2.01,10.06-5.52,17.93-10.53,23.6-5.01,5.68-11.19,9.65-18.56,11.9-7.36,2.26-18.46,3.39-33.29,3.39h-78.21V156.76ZM1659.85,213.61v218.59c8.93,0,14.44-2.5,16.5-7.49,2.06-4.99,3.09-18.58,3.09-40.74v-129.1c0-15.05-.35-24.7-1.03-28.94-.69-4.24-2.26-7.35-4.71-9.34-2.46-1.98-7.07-2.98-13.85-2.98Z"/>
  <g>
    <circle class="cls-1" cx="118.38" cy="172.28" r="16.03"/>
    <circle class="cls-2" cx="78.86" cy="223.05" r="16.03"/>
    <circle class="cls-2" cx="75.62" cy="264.1" r="16.03"/>
    <path class="cls-2" d="M209.15,302.46c0,8.86-7.18,16.03-16.03,16.03-5.94,0-11.13-3.23-13.9-8.03-1.36-2.35-2.13-5.09-2.13-8s.77-5.61,2.11-7.95c.01-.02.02-.03.03-.05,2.77-4.8,7.95-8.03,13.89-8.03.7,0,1.4.05,2.08.14,7.87,1.01,13.95,7.75,13.95,15.89Z"/>
    <circle class="cls-2" cx="193.12" cy="360.96" r="16.03"/>
    <circle class="cls-2" cx="85.5" cy="383.8" r="16.03"/>
    <circle class="cls-1" cx="46.46" cy="426.93" r="16.03"/>
    <circle class="cls-1" cx="16.03" cy="353.59" r="16.03"/>
    <circle class="cls-1" cx="30.42" cy="314.12" r="16.03"/>
    <path class="cls-1" d="M267.01,191.02v72.26l-40.57-40.57v-21.31l-33.74-33.74c4.71-3.7,17.21-11.41,39.55-11.41,19.2,0,34.76,15.57,34.76,34.77Z"/>
    <path class="cls-2" d="M267.01,281.67v103.6l-22.23-22.23v-81.32l-33.51-33.51h-39.49l-30.7-30.7v-34.03c6.17-4.7,24.55-12.35,31.83-12.35,1.79,0,3.55.14,5.27.4l35.26,35.25v21.31l53.57,53.58Z"/>
    <path class="cls-2" d="M194.01,406.72l-62.61-.09-29.26,29.25c8.5,8.41,28.28,26.35,49.78,25.45.55.02.97,0,1.2-.05,6.32,8.64,13.04,10.19,24.57,10.19,8.04,0,15.44-2.73,21.33-7.32,4.36,14.22,17.59,24.56,33.24,24.56,11.88,0,20.07-7.58,26.33-16.68l-64.57-65.31Z"/>
    <path class="cls-2" d="M194.23,302.46c0,4.42-3.58,8-8,8h-73.56c-2.13,0-4.16-.84-5.66-2.34l-33.36-33.36c-3.13-3.12-3.13-8.19,0-11.31,3.12-3.13,8.19-3.13,11.31,0l5.83,5.83,25.19,25.18h70.25c.3,0,.6.02.9.05,4,.45,7.1,3.84,7.1,7.95Z"/>
    <path class="cls-2" d="M161.98,308.36c-1.56,1.56-3.61,2.34-5.66,2.34s-4.09-.78-5.66-2.34l-13.61-13.61-.05-.05-11.06-11.06-44.66-44.66-7.6-7.6c-3.12-3.13-3.12-8.19,0-11.32,3.12-3.12,8.19-3.12,11.31,0l8.2,8.2,66.49,66.49,2.3,2.3c3.12,3.12,3.12,8.19,0,11.31Z"/>
    <path class="cls-2" d="M193.04,359.97c0,4.42-3.58,8-8,8h-71.28l-12.57,12.56-6.13,6.13c-1.56,1.56-3.61,2.34-5.65,2.34s-4.1-.78-5.66-2.34c-3.12-3.13-3.12-8.19,0-11.32l6.77-6.76,14.27-14.27c1.5-1.5,3.53-2.34,5.65-2.34h74.6c4.42,0,8,3.58,8,8Z"/>
    <path class="cls-1" d="M267.01,403.66v60.26l-69.28-68.86h-69.97l-39.93,39.8h-39.2c-6.08-1.05-7.57-7.04-11.56-13.04h42.41c1.22,0,2.4-.49,3.26-1.35l41.39-41.39h51.62c4.5,4.33,10.62,6.99,17.37,6.99,14.4,0,25.96-12.11,25.06-26.69-.77-12.5-10.93-22.68-23.44-23.47-6.26-.39-12.08,1.51-16.67,4.95h-69.09c-2.68,0-5.26,1.04-7.19,2.9l-16.06,15.49c-1.5,1.5-3.54,2.34-5.66,2.34H19.6c-4.59,0-8.28-3.87-7.98-8.53.28-4.25,4-7.47,8.26-7.47h56.89l15.44-15.44-8.03-8.03h-49.36c-4.59,0-8.28-3.87-7.98-8.53.27-4.25,3.99-7.47,8.26-7.47h50.93c2.12,0,4.15.84,5.65,2.34l9.7,9.97c1.95,2.01,4.63,3.14,7.43,3.14h68.03c4.85,4.14,11.3,6.47,18.31,5.92,12.3-.97,22.22-11.04,23.02-23.35.95-14.62-10.63-26.78-25.05-26.78-6.23,0-11.94,2.27-16.33,6.04h-12.86l-52.75-52.75-.02-.05v-62.34c4.23-2.29,9.07-3.59,14.22-3.59.83,0,1.66.04,2.47.11v57.53c0,.09.08.24.23.45v.14l38.31,38.31h39.5l25.89,25.89v81.33l35.23,35.23Z"/>
  </g>
</svg>