<svg xmlns="http://www.w3.org/2000/svg" id="Layer_1" data-name="Layer 1" viewBox="0 0 1742 496">
  <defs>
    <style>
      .cls-1{fill:#7ff331}.cls-2{fill:#911af3}
    </style>
  </defs>
  <circle cx="521.7" cy="402.6" r="18.9" class="cls-2"/>
  <circle cx="492.2" cy="450" r="19.3" class="cls-2"/>
  <path d="M483 454q-31 0-58-12a6 6 0 1 1 5-12q26 12 57 11 18-18 29-41a6 6 0 1 1 12 5q-12 27-33 47l-5 2z" class="cls-2"/>
  <path d="M317 172c10 0 24 7 30 14a16 16 0 0 0 20 4 19 19 0 0 1 29 16 16 16 0 0 0 18 16h2a14 14 0 0 1 14 15q1 14 14 17t12 19l-1 5q-2 15 12 19 11 3 18 15 7 14 7 33 0 23-10 36-8 13-24 13c-8 0-16 7-16 16s-5 16-13 18q-7 2-10 7a14 14 0 0 1-15 7 16 16 0 0 0-17 6 19 19 0 0 1-26 4 16 16 0 0 0-26 7q-4 13-18 14c-10 0-18-9-18-19V191c0-10 8-19 18-19m0-16c-19 0-34 16-34 35v263a35 35 0 0 0 68 10 35 35 0 0 0 49-7 30 30 0 0 0 33-14c14-4 25-17 25-33 33 0 50-29 50-65 0-31-13-57-37-63l1-9q-1-29-26-35v-2a30 30 0 0 0-34-30 35 35 0 0 0-53-30c-9-12-28-20-42-20" class="cls-1"/>
  <circle cx="481.6" cy="219.2" r="13.7" class="cls-2"/>
  <circle cx="511.5" cy="259.3" r="21.4" class="cls-2"/>
  <circle cx="534.5" cy="323.4" r="14.8" class="cls-2"/>
  <path d="M293 297h-2q-5-3-5-8c8-30 31-54 57-59a7 7 0 0 1 2 12c-20 4-39 25-46 50q-1 5-6 5m51 6q-5-1-6-6c-1-14 4-32 31-40q23-4 29-15t0-29v-6q14-18 39-31a6 6 0 1 1 6 12q-21 10-32 24 7 21-2 36-9 16-37 22-23 6-21 26-1 7-7 7m31 66a6 6 0 0 1-3-12q27-17 40-53l2-2q26-25 59-18a6 6 0 1 1-3 13q-26-7-46 13-16 39-45 57zm-35 57a7 7 0 0 1-2-13q28-9 43-21l5-1c27 5 43 7 70 3a7 7 0 0 1 2 13c-29 4-47 2-72-2a161 161 0 0 1-46 21" class="cls-1"/>
  <path d="M535 330q-5 0-7-5-9-37-22-62l-30-40a6 6 0 1 1 11-8l30 40v1q15 27 24 66a6 6 0 0 1-6 8" class="cls-2"/>
  <circle cx="344.1" cy="299.5" r="23" class="cls-2"/>
  <circle cx="354.3" cy="229.5" r="16.1" class="cls-2"/>
  <circle cx="440" cy="180.5" r="14.7" class="cls-2"/>
  <circle cx="338" cy="419.3" r="17.1" class="cls-2"/>
  <circle cx="400.1" cy="423.3" r="10.7" class="cls-2"/>
  <circle cx="370.3" cy="364.7" r="17.3" class="cls-2"/>
  <circle cx="418.3" cy="306.4" r="16" class="cls-2"/>
  <path d="m340 88-29-7c-12-8-30-51-38-66-6 0 6 0 0 0-8 14-26 58-38 66l-29 7-48-6 24 57q45-15 91-14 46-1 91 14l24-57c-1-1-48 6-48 6" class="cls-1"/>
  <circle cx="273.1" cy="14.7" r="14.7" class="cls-2"/>
  <circle cx="157.7" cy="76.8" r="14.7" class="cls-2"/>
  <circle cx="387.6" cy="76.8" r="14.7" class="cls-2"/>
  <path d="M754 157v332h-54V265l-22 224h-38l-23-219v219h-54V157h80l7 70 9 85 14-155zm32 0h103v66h-41v63h38v63h-38v74h45v66H786zm323 0v332h-54V265l-22 224h-38l-23-219v219h-54V157h80l7 70 9 85 14-155z" class="cls-1"/>
  <path d="M1202 157v266h38v66h-100V157zm197 194-2 71q-1 21-10 38-9 18-24 27-16 9-36 9c-20 0-24-3-34-9q-15-8-25-26-9-17-11-38l-1-72v-57l1-70q2-21 11-39 9-17 24-26t35-9q19 0 35 8 15 9 24 27 9 17 11 38l2 71zm-62-109-2-30q-2-6-7-6t-8 5-2 31v155l1 36q2 7 8 7 8 0 8-8 2-8 2-37zm92-85h44q44 0 59 4 16 6 25 25 10 19 10 61 0 39-7 53-6 13-27 16 19 6 25 17 6 10 8 19 2 12 1 49v88h-57V379q0-27-3-33-4-7-16-7v150h-62zm62 57v74q11 0 14-4 5-5 5-26v-19q-1-15-4-20-5-5-15-5m107-57h46q45 0 61 6 17 5 24 18 9 14 10 30 3 15 2 63v116q0 45-3 60t-10 24-19 12-33 3h-78zm62 57v218q13 0 16-7 3-8 3-41V255l-1-29q0-6-4-9t-14-3" class="cls-2"/>
  <circle cx="118.4" cy="172.3" r="16" class="cls-1"/>
  <circle cx="78.9" cy="223.1" r="16" class="cls-2"/>
  <circle cx="75.6" cy="264.1" r="16" class="cls-2"/>
  <path d="M209 302a16 16 0 1 1-30-7v-1a16 16 0 0 1 30 8" class="cls-2"/>
  <circle cx="193.1" cy="361" r="16" class="cls-2"/>
  <circle cx="85.5" cy="383.8" r="16" class="cls-2"/>
  <circle cx="46.5" cy="426.9" r="16" class="cls-1"/>
  <circle cx="16" cy="353.6" r="16" class="cls-1"/>
  <circle cx="30.4" cy="314.1" r="16" class="cls-1"/>
  <path d="M267 191v72l-41-40v-22l-33-33c4-4 17-12 39-12 19 0 35 16 35 35" class="cls-1"/>
  <path d="M267 282v103l-22-22v-81l-34-34h-39l-31-30v-35c6-4 25-12 32-12l5 1 35 35v21zm-73 125h-63l-29 29c9 8 28 26 50 25h1q8 12 25 10 12 0 21-7c4 14 18 25 33 25q17-2 27-17zm0-105q0 8-8 8h-73l-6-2-33-33a8 8 0 1 1 11-12l6 6 25 25h70l1 1q7 1 7 7" class="cls-2"/>
  <path d="M162 308a8 8 0 0 1-11 0l-14-13-11-11-45-45-7-8a8 8 0 0 1 11-11l8 8 67 67 2 2q5 6 0 11m31 52q-1 7-8 8h-71l-13 13-6 6a8 8 0 0 1-11 0q-4-6 0-12l7-6 14-15 5-2h75q7 1 8 8" class="cls-2"/>
  <path d="M267 404v60l-69-69h-70l-40 40H49q-7-3-12-13h42l4-2 41-41h52q6 7 17 7a25 25 0 1 0-15-45h-69q-4 0-7 3l-16 15-6 3H20q-8-1-8-9 1-6 8-7h57l15-16-8-8H35q-8-1-8-8 1-8 8-8h51l6 2 9 10q3 4 8 4h68a25 25 0 0 0 41-18 25 25 0 0 0-41-21h-13l-53-52v-63a30 30 0 0 1 17-3v58l38 38h40l26 26v81z" class="cls-1"/>
</svg>
